<!-- Generated by IcoMoon.io -->
<svg version="1.1" xmlns="http://www.w3.org/2000/svg" width="32" height="32" viewBox="0 0 32 32">
<title>ball</title>
<path d="M16 32c8.837 0 16-7.163 16-16s-7.163-16-16-16c-8.837 0-16 7.163-16 16s7.163 16 16 16z"></path>
<path fill="none" stroke="#fff" stroke-linejoin="miter" stroke-linecap="square" stroke-miterlimit="4" stroke-width="0.9982" d="M7.657 9.051h16.686"></path>
<path fill="none" stroke="#fff" stroke-linejoin="miter" stroke-linecap="square" stroke-miterlimit="4" stroke-width="0.9982" d="M10.446 22.949c0.439 0 0.867-0.13 1.232-0.374s0.649-0.59 0.817-0.995c0.168-0.405 0.212-0.851 0.126-1.281s-0.297-0.825-0.607-1.135c-0.31-0.31-0.705-0.521-1.135-0.607s-0.876-0.042-1.281 0.126c-0.405 0.168-0.751 0.452-0.995 0.817s-0.374 0.793-0.374 1.232c0 0.291 0.057 0.579 0.169 0.848s0.275 0.513 0.481 0.719c0.206 0.206 0.45 0.369 0.719 0.481s0.557 0.169 0.848 0.169v0z"></path>
<path fill="none" stroke="#fff" stroke-linejoin="miter" stroke-linecap="butt" stroke-miterlimit="4" stroke-width="0.9982" d="M10.446 18.514v-9.486"></path>
<path fill="none" stroke="#fff" stroke-linejoin="miter" stroke-linecap="square" stroke-miterlimit="4" stroke-width="0.9982" d="M14.903 22.949c0.438-0.005 0.864-0.138 1.225-0.385s0.642-0.594 0.807-1c0.164-0.406 0.205-0.851 0.117-1.279s-0.301-0.821-0.612-1.129c-0.311-0.308-0.706-0.517-1.135-0.6s-0.874-0.038-1.278 0.13c-0.404 0.168-0.749 0.453-0.991 0.817s-0.372 0.792-0.372 1.229c-0 0.293 0.058 0.583 0.171 0.854s0.278 0.516 0.487 0.722c0.208 0.206 0.455 0.369 0.727 0.479s0.562 0.165 0.855 0.162v0z"></path>
<path fill="none" stroke="#fff" stroke-linejoin="miter" stroke-linecap="butt" stroke-miterlimit="4" stroke-width="0.9982" d="M14.903 18.514v-9.486"></path>
<path fill="none" stroke="#fff" stroke-linejoin="miter" stroke-linecap="square" stroke-miterlimit="4" stroke-width="0.9982" d="M24 17.897c0.224 0.376 0.332 0.809 0.31 1.246s-0.172 0.857-0.432 1.209c-0.26 0.352-0.619 0.618-1.030 0.767s-0.858 0.172-1.282 0.067c-0.425-0.105-0.809-0.332-1.104-0.655s-0.489-0.725-0.556-1.157c-0.067-0.432-0.005-0.875 0.179-1.272s0.481-0.731 0.853-0.959c0.249-0.154 0.526-0.258 0.815-0.305s0.584-0.036 0.869 0.032c0.285 0.068 0.553 0.192 0.79 0.364s0.437 0.39 0.589 0.64v0.023z"></path>
<path fill="none" stroke="#fff" stroke-linejoin="miter" stroke-linecap="butt" stroke-miterlimit="4" stroke-width="0.9982" d="M21.303 16.983l-3.131-7.931"></path>
</svg>
