<!-- Generated by IcoMoon.io -->
<svg version="1.1" xmlns="http://www.w3.org/2000/svg" width="32" height="32" viewBox="0 0 32 32">
<title>cross4</title>
<path d="M18.667 0h-5.333v5.333h5.333v-5.333z"></path>
<path d="M32 13.307h-5.333v5.333h5.333v-5.333z"></path>
<path d="M5.333 13.307h-5.333v5.333h5.333v-5.333z"></path>
<path d="M18.667 26.667h-5.333v5.333h5.333v-5.333z"></path>
<path d="M25.427 2.804l-3.771 3.771 3.771 3.771 3.771-3.771-3.771-3.771z"></path>
<path d="M25.439 21.65l-3.771 3.771 3.771 3.771 3.771-3.771-3.771-3.771z"></path>
<path d="M6.589 2.783l-3.771 3.771 3.771 3.771 3.771-3.771-3.771-3.771z"></path>
<path d="M6.574 21.653l-3.771 3.771 3.771 3.771 3.771-3.771-3.771-3.771z"></path>
</svg>
