<!-- Generated by IcoMoon.io -->
<svg version="1.1" xmlns="http://www.w3.org/2000/svg" width="32" height="32" viewBox="0 0 32 32">
<title>cross2</title>
<path d="M18.667 22.693h-5.333v9.333h5.333v-9.333z"></path>
<path d="M18.667-0.027h-5.333v9.333h5.333v-9.333z"></path>
<path d="M9.307 13.333h-9.333v5.333h9.333v-5.333z"></path>
<path d="M32.027 13.333h-9.333v5.333h9.333v-5.333z"></path>
<path d="M9.375 18.851l-6.6 6.6 3.771 3.771 6.6-6.6-3.771-3.771z"></path>
<path d="M25.455 2.778l-6.6 6.6 3.771 3.771 6.6-6.6-3.771-3.771z"></path>
<path d="M6.55 2.775l-3.771 3.771 6.6 6.6 3.771-3.771-6.6-6.6z"></path>
<path d="M22.623 18.855l-3.771 3.771 6.6 6.6 3.771-3.771-6.6-6.6z"></path>
</svg>
