<!-- Generated by IcoMoon.io -->
<svg version="1.1" xmlns="http://www.w3.org/2000/svg" width="32" height="32" viewBox="0 0 32 32">
<title>magic</title>
<path d="M16 32c8.837 0 16-7.163 16-16s-7.163-16-16-16c-8.837 0-16 7.163-16 16s7.163 16 16 16z"></path>
<path fill="none" stroke="#fff" stroke-linejoin="miter" stroke-linecap="butt" stroke-miterlimit="4" stroke-width="0.9982" d="M14.629 16.229l-7.337 7.36"></path>
<path fill="none" stroke="#fff" stroke-linejoin="miter" stroke-linecap="square" stroke-miterlimit="4" stroke-width="0.9982" d="M11.566 7.634h-2.24"></path>
<path fill="none" stroke="#fff" stroke-linejoin="miter" stroke-linecap="square" stroke-miterlimit="4" stroke-width="0.9982" d="M10.446 6.514v2.24"></path>
<path fill="none" stroke="#fff" stroke-linejoin="miter" stroke-linecap="square" stroke-miterlimit="4" stroke-width="0.9982" d="M23.223 20.96h-2.217"></path>
<path fill="none" stroke="#fff" stroke-linejoin="miter" stroke-linecap="square" stroke-miterlimit="4" stroke-width="0.9982" d="M22.103 19.863v2.217"></path>
<path fill="none" stroke="#fff" stroke-linejoin="miter" stroke-linecap="square" stroke-miterlimit="4" stroke-width="0.9982" d="M18.217 8.183v-1.669"></path>
<path fill="none" stroke="#fff" stroke-linejoin="miter" stroke-linecap="square" stroke-miterlimit="4" stroke-width="0.9982" d="M24.343 13.189h-1.669"></path>
<path fill="none" stroke="#fff" stroke-linejoin="miter" stroke-linecap="square" stroke-miterlimit="4" stroke-width="0.9982" d="M14.789 16.069l-3.36-0.777 2.949-1.783-0.297-3.451 2.606 2.263 3.2-1.326-1.349 3.177 2.263 2.606-3.451-0.297-1.783 2.949-0.777-3.36z"></path>
</svg>
