<!-- Generated by IcoMoon.io -->
<svg version="1.1" xmlns="http://www.w3.org/2000/svg" width="32" height="32" viewBox="0 0 32 32">
<title>Planet</title>
<path d="M16 2.667c-3.536 0-6.928 1.405-9.428 3.905s-3.905 5.892-3.905 9.428c0 3.536 1.405 6.928 3.905 9.428s5.892 3.905 9.428 3.905c3.536 0 6.928-1.405 9.428-3.905s3.905-5.892 3.905-9.428c0-3.536-1.405-6.928-3.905-9.428s-5.892-3.905-9.428-3.905zM14.667 26.573c-1.477-0.188-2.899-0.683-4.173-1.453s-2.373-1.799-3.226-3.020c-0.853-1.221-1.441-2.607-1.725-4.068s-0.26-2.967 0.072-4.419l6.387 6.387v1.333c0 1.467 1.2 2.667 2.667 2.667v2.573zM23.867 23.187c-0.347-1.080-1.333-1.853-2.533-1.853h-1.333v-4c0-0.354-0.141-0.693-0.391-0.943s-0.589-0.391-0.943-0.391h-8v-2.667h2.667c0.354 0 0.693-0.14 0.943-0.391s0.391-0.589 0.391-0.943v-2.667h2.667c0.707 0 1.385-0.281 1.886-0.781s0.781-1.178 0.781-1.886v-0.547c1.592 0.647 3.004 1.669 4.116 2.979s1.891 2.869 2.271 4.545c0.38 1.676 0.349 3.419-0.090 5.080s-1.272 3.192-2.43 4.462z"></path>
</svg>
